<?xml version="1.0" standalone="no"?>
<!DOCTYPE svg PUBLIC "-//W3C//DTD SVG 20010904//EN"
 "http://www.w3.org/TR/2001/REC-SVG-20010904/DTD/svg10.dtd">
<svg version="1.0" xmlns="http://www.w3.org/2000/svg"
 width="700.000000pt" height="700.000000pt" viewBox="0 0 700.000000 700.000000"
 preserveAspectRatio="xMidYMid meet">
<metadata>
Created by potrace 1.14, written by Peter Selinger 2001-2017
</metadata>
<g transform="translate(0.000000,700.000000) scale(0.100000,-0.100000)"
fill="#000000" stroke="none">
<path d="M3308 6996 c-1 -2 -43 -7 -92 -10 -101 -8 -160 -15 -194 -22 -13 -3
-43 -7 -65 -10 -194 -26 -541 -122 -757 -210 -464 -190 -838 -439 -1190 -793
-574 -577 -923 -1323 -997 -2133 -10 -107 -10 -531 0 -628 87 -831 430 -1563
1009 -2150 49 -50 97 -95 203 -191 128 -114 369 -285 550 -388 266 -153 610
-291 895 -359 98 -24 177 -41 220 -47 25 -4 54 -9 65 -11 11 -3 43 -7 70 -10
28 -3 55 -7 62 -9 80 -27 656 -26 843 1 567 82 1026 251 1475 542 76 49 280
198 305 222 9 8 40 35 70 60 402 334 767 843 970 1350 76 190 164 487 184 624
4 21 8 41 10 45 2 3 7 33 11 66 3 32 8 62 10 65 2 3 6 39 10 80 4 41 9 89 12
105 8 61 10 513 2 597 -16 168 -34 300 -54 388 -3 14 -8 39 -11 55 -19 108
-69 282 -126 445 -205 578 -564 1095 -1048 1511 -100 86 -377 289 -394 289 -3
0 -25 14 -49 30 -25 17 -49 30 -55 30 -6 0 -12 3 -14 8 -5 11 -231 128 -338
174 -272 118 -635 223 -872 252 -27 3 -69 9 -95 12 -27 3 -59 8 -73 11 -27 5
-546 14 -552 9z m392 -480 c172 -11 362 -41 520 -80 142 -36 365 -111 476
-162 319 -144 580 -310 814 -519 196 -174 464 -489 554 -652 9 -15 21 -35 26
-43 72 -110 181 -332 239 -485 13 -33 27 -69 31 -80 16 -37 82 -268 96 -335
79 -382 89 -722 34 -1100 -31 -215 -127 -568 -184 -678 -9 -17 -16 -36 -16
-41 0 -13 -118 -256 -166 -341 -186 -332 -494 -680 -809 -917 -174 -130 -390
-257 -589 -345 -121 -54 -361 -137 -468 -162 -199 -47 -188 -45 -343 -67 -229
-32 -596 -34 -820 -3 -1238 171 -2247 1085 -2534 2296 -16 67 -32 146 -37 173
-4 28 -8 55 -9 60 -2 10 -9 61 -22 170 -16 129 -8 581 12 695 2 14 7 43 10 65
78 547 353 1126 735 1550 350 388 781 674 1279 846 101 35 201 64 254 75 10 2
26 5 35 8 9 3 31 8 47 11 17 2 41 7 55 10 21 5 126 22 245 40 17 2 82 7 145
11 63 3 116 7 117 8 4 3 174 -2 273 -8z"/>
<path d="M2667 4523 c-1 0 -96 -4 -210 -7 -184 -5 -254 -11 -360 -31 -93 -18
-299 -116 -374 -178 -168 -139 -288 -309 -347 -492 -116 -362 -8 -790 266
-1051 211 -201 457 -284 848 -286 342 -1 450 3 450 16 0 19 -2 22 -260 256
-57 52 -113 104 -124 115 -18 18 -35 20 -136 21 -127 1 -181 8 -249 31 -191
64 -347 231 -406 436 -48 165 -12 340 103 504 103 148 255 235 437 249 39 3
309 6 602 7 459 2 534 4 546 17 7 8 24 42 37 75 30 76 86 170 141 235 69 82
90 79 -474 82 -269 2 -489 2 -490 1z"/>
<path d="M4647 4524 c-1 -1 -96 -4 -212 -8 -234 -7 -262 -10 -355 -33 -189
-47 -349 -204 -400 -393 -20 -74 -21 -82 -21 -165 -1 -289 159 -506 431 -586
74 -22 85 -22 790 -24 424 -1 726 2 743 8 33 11 33 18 6 76 -80 169 -249 297
-429 326 -25 4 -241 9 -480 11 -476 3 -481 4 -525 26 -62 33 -95 88 -95 159 0
73 54 138 130 159 26 7 236 11 597 11 436 0 563 3 581 13 16 8 31 35 47 82 14
38 30 80 37 94 18 37 107 172 130 196 15 17 17 24 7 30 -7 4 -193 9 -414 11
-220 2 -438 5 -483 6 -46 1 -84 1 -85 1z"/>
<path d="M2255 3654 c24 -58 93 -155 148 -206 107 -102 206 -137 412 -145 77
-3 142 -7 144 -9 2 -2 3 -83 3 -181 0 -176 4 -202 37 -234 9 -9 54 -58 101
-109 116 -127 116 -128 194 -215 l70 -76 900 3 c890 4 902 4 980 26 195 54
359 208 402 376 l6 25 -1137 0 c-626 0 -1139 2 -1141 4 -2 2 -4 177 -4 390
l-1 387 -565 0 -564 0 15 -36z"/>
</g>
</svg>
