<svg width="40" height="40" viewBox="0 0 40 40" fill="none" xmlns="http://www.w3.org/2000/svg">
<path d="M15.7895 0C11.7053 0 8.10526 2.61053 6.8 6.48421C2.86316 7.24211 0 10.7158 0 14.7368C0 19.3895 3.76842 23.1579 8.42105 23.1579V40H31.5789V35.7895H37.8947C39.0526 35.7895 40 34.8421 40 33.6842V16.8421C40 15.6842 39.0526 14.7368 37.8947 14.7368H33.6842V10.5263C33.6842 5.87368 29.9158 2.10526 25.2632 2.10526H21.7263C20 0.736842 17.9579 0 15.7895 0ZM15.7895 4.21053C17.4526 4.21053 19.0105 4.98947 20 6.31579H25.2632C27.6 6.31579 29.4737 8.21053 29.4737 10.5263H21.0526C16.8421 10.5263 15.4105 12.9053 13.6842 16.0632C11.9579 19.2211 8.42105 18.9474 8.42105 18.9474C6.08421 18.9474 4.21053 17.0737 4.21053 14.7368C4.21053 12.4211 6.08421 10.5263 8.42105 10.5263H10.5263V9.47368C10.5263 6.56842 12.8842 4.21053 15.7895 4.21053ZM31.5789 18.9474H35.7895V31.5789H31.5789V18.9474Z" fill="white"/>
</svg>
