<svg width="40" height="37" viewBox="0 0 40 37" fill="none" xmlns="http://www.w3.org/2000/svg">
<path d="M38.1818 18.1818V32.7273C38.1818 33.6917 37.7987 34.6166 37.1168 35.2986C36.4348 35.9805 35.5099 36.3636 34.5455 36.3636H5.45455C4.49012 36.3636 3.5652 35.9805 2.88325 35.2986C2.2013 34.6166 1.81818 33.6917 1.81818 32.7273V18.1818C1.33597 18.1818 0.873508 17.9903 0.532533 17.6493C0.191558 17.3083 0 16.8458 0 16.3636V10.9091C0 9.94467 0.383116 9.01974 1.06507 8.33779C1.74702 7.65584 2.67194 7.27273 3.63636 7.27273H9.4C9.2 6.70909 9.09091 6.09091 9.09091 5.45455C9.09091 4.00791 9.66558 2.62053 10.6885 1.5976C11.7114 0.574674 13.0988 0 14.5455 0C16.3636 0 17.9636 0.909091 18.9636 2.25455V2.23636L20 3.63636L21.0364 2.23636V2.25455C22.0364 0.909091 23.6364 0 25.4545 0C26.9012 0 28.2886 0.574674 29.3115 1.5976C30.3344 2.62053 30.9091 4.00791 30.9091 5.45455C30.9091 6.09091 30.8 6.70909 30.6 7.27273H36.3636C37.3281 7.27273 38.253 7.65584 38.9349 8.33779C39.6169 9.01974 40 9.94467 40 10.9091V16.3636C40 16.8458 39.8084 17.3083 39.4675 17.6493C39.1265 17.9903 38.664 18.1818 38.1818 18.1818ZM5.45455 32.7273H18.1818V18.1818H5.45455V32.7273ZM34.5455 32.7273V18.1818H21.8182V32.7273H34.5455ZM14.5455 3.63636C14.0632 3.63636 13.6008 3.82792 13.2598 4.1689C12.9188 4.50987 12.7273 4.97233 12.7273 5.45455C12.7273 5.93676 12.9188 6.39922 13.2598 6.74019C13.6008 7.08117 14.0632 7.27273 14.5455 7.27273C15.0277 7.27273 15.4901 7.08117 15.8311 6.74019C16.1721 6.39922 16.3636 5.93676 16.3636 5.45455C16.3636 4.97233 16.1721 4.50987 15.8311 4.1689C15.4901 3.82792 15.0277 3.63636 14.5455 3.63636ZM25.4545 3.63636C24.9723 3.63636 24.5099 3.82792 24.1689 4.1689C23.8279 4.50987 23.6364 4.97233 23.6364 5.45455C23.6364 5.93676 23.8279 6.39922 24.1689 6.74019C24.5099 7.08117 24.9723 7.27273 25.4545 7.27273C25.9368 7.27273 26.3992 7.08117 26.7402 6.74019C27.0812 6.39922 27.2727 5.93676 27.2727 5.45455C27.2727 4.97233 27.0812 4.50987 26.7402 4.1689C26.3992 3.82792 25.9368 3.63636 25.4545 3.63636ZM3.63636 10.9091V14.5455H18.1818V10.9091H3.63636ZM21.8182 10.9091V14.5455H36.3636V10.9091H21.8182Z" fill="white"/>
</svg>