<?xml version="1.0" ?>
<!DOCTYPE svg PUBLIC '-//W3C//DTD SVG 1.1//EN' 'http://www.w3.org/Graphics/SVG/1.1/DTD/svg11.dtd'><svg
    enable-background="new 0 0 128 128" id="Layer_1" version="1.1" viewBox="0 0 128 128" xml:space="preserve"
    xmlns="http://www.w3.org/2000/svg" xmlns:xlink="http://www.w3.org/1999/xlink">
    <circle cx="64" cy="64" fill="#9AC928" id="circle" r="64" />
    <g id="icon">
        <path d="M36,94L36,94c-1.1,0-2-0.9-2-2V36c0-1.1,0.9-2,2-2h0c1.1,0,2,0.9,2,2v56   C38,93.1,37.1,94,36,94z"
            fill="#E6E6E6" id="line_1_" />
        <path d="M92,94H36c-1.1,0-2-0.9-2-2l0,0c0-1.1,0.9-2,2-2h56c1.1,0,2,0.9,2,2l0,0   C94,93.1,93.1,94,92,94z"
            fill="#E6E6E6" id="line_2_" />
        <polygon fill="#1d252c" id="line"
            points="86.3,48 84.6,46.8 72.1,64.7 56.3,54.7 56.4,54.5 55,53.9 55,53.9 55,53.9 54.5,53.7    43.7,79.5 45.6,80.3 55.5,56.6 72.2,67 72.7,67.4 72.7,67.4 73,67.6 74.1,65.9 73.8,65.7  " />
        <circle cx="46.2" cy="76.8" fill="#CF000F" id="red" r="4" />
        <circle cx="55.2" cy="56" fill="#22A7F0" id="blue" r="4" />
        <circle cx="72.2" cy="64" fill="#E67E22" id="orange" r="4" />
        <circle cx="86.2" cy="46" fill="#26A65B" id="green" r="4" />
    </g>
</svg>