<?xml version="1.0" ?>
<!DOCTYPE svg PUBLIC '-//W3C//DTD SVG 1.1//EN' 'http://www.w3.org/Graphics/SVG/1.1/DTD/svg11.dtd'><svg
    enable-background="new 0 0 128 128" id="Layer_1" version="1.1" viewBox="0 0 128 128" xml:space="preserve"
    xmlns="http://www.w3.org/2000/svg" xmlns:xlink="http://www.w3.org/1999/xlink">
    <circle cx="64" cy="64" fill="#9AC928" id="circle" r="64" />
    <g id="icon">
        <path
            d="M66.3,84c3.4,0,6.5-0.8,9.3-2.3c1.9,1.2,4.1,1.9,6.5,1.9c6.9,0,12.5-5.6,12.5-12.5   c0-5.7-3.8-10.4-8.9-12C83.5,50.4,75.6,44,66.3,44"
            fill="#E6E6E6" id="right" />
        <path
            d="M66.3,44c-7.4,0-13.9,4-17.3,10c-0.2,0-0.4,0-0.6,0c-8.3,0-15,6.7-15,15c0,8.3,6.7,15,15,15   c3,0,5.9-0.9,8.2-2.5c2.9,1.6,6.1,2.5,9.6,2.5"
            fill="#FFFFFF" id="left" />
    </g>
</svg>