<svg xmlns="http://www.w3.org/2000/svg" viewBox="0 0 262.81 263.05">
    <defs>
        <style>
            #Capa_2 {
                fill: #fff;
            }
        </style>
    </defs>
    <title>favicon</title>
    <g id="Capa_2" data-name="Capa 2">
        <path
            d="M262.81,131.6c.06,74.17-61.43,132.54-133.32,131.43S-.74,202.25,0,129.68C.76,57.89,60-.32,133.16,0,204.33.28,263,59.85,262.81,131.6ZM131.31,245C194.53,245,244.94,194.24,245,130.65,245,69,193.65,18,131.59,17.92A113.54,113.54,0,0,0,18,131.45v.47C18.12,194.32,68.94,245.08,131.31,245Z" />
        <path
            d="M138,94.27A32.59,32.59,0,0,0,130,107.78c-2.14,1-4,.7-5.81.71h-34c-7.53,0-14.2,2.07-19,8.16-5.56,7-7.56,14.74-3.9,23.34s10.35,13.68,19.83,14.58c2.63.25,5.3,0,7.88,0l15.56,14.21-.45,1.06c-10.85-.34-21.83,1.25-32.54-1.65-18.36-5-29.58-22.36-27.35-41.75A37.5,37.5,0,0,1,85.6,93.58c16.65-.89,33.32-.22,50-.39A2.26,2.26,0,0,1,138,94.27Z" />
        <path
            d="M212.21,137.48a3,3,0,0,1-2.61,1c-16.47,0-32.95.18-49.43,0-11.64-.15-20.2-7.18-22.36-17.66-2.85-13.8,5.94-26.07,20-27.11,14.94-1.11,29.94-.23,44.92-.41a56,56,0,0,1,9.15.48c-3.7,4.56-6.72,9.21-7.87,14.57-1.87,1.39-3.77.91-5.55.92H164a22.81,22.81,0,0,0-4.95.38,6.34,6.34,0,0,0-5.21,6.4,6.49,6.49,0,0,0,5.39,6.29,23,23,0,0,0,4.47.26c9.49.07,19-.12,28.46.2A21.66,21.66,0,0,1,212.21,137.48Z" />
        <path
            d="M111.21,153.29V139.06c-7.47,0-14.94.3-20.74-5.25a26.8,26.8,0,0,1-6.44-9.4h42.42v29.37h85.76c-2.19,9.17-10.77,15.59-21.07,15.89-9.15.26-18.3.15-27.46.17H126.24C121.67,164.83,117,159.67,111.21,153.29Z" />

    </g>
</svg>