<svg xmlns="http://www.w3.org/2000/svg" viewBox="0 0 262.8 263.04">
    <title>logo</title>
    <g id="Capa_2" data-name="Capa 2">
        <g id="Capa_1-2" data-name="Capa 1" fill="#fff">
            <path
                d="M422.6,194.82c.06,74.17-61.43,132.54-133.32,131.43S159.05,265.47,159.8,192.9c.75-71.79,60-130,133.15-129.68C364.12,63.5,422.81,123.07,422.6,194.82ZM291.1,308.25c63.22-.06,113.63-50.79,113.67-114.38,0-61.64-51.33-112.7-113.39-112.73a113.54,113.54,0,0,0-113.55,114C177.91,257.54,228.73,308.3,291.1,308.25Z"
                transform="translate(-159.8 -63.22)" />
            <path
                d="M297.82,157.49A32.55,32.55,0,0,0,289.76,171c-2.14,1-4,.7-5.81.71q-17,0-34,0c-7.53,0-14.2,2.07-19,8.16-5.56,7-7.56,14.74-3.9,23.34,3.73,8.75,10.35,13.68,19.83,14.58,2.63.25,5.3,0,7.88,0L270.32,232l-.45,1.06c-10.85-.34-21.83,1.25-32.54-1.65-18.36-5-29.58-22.36-27.35-41.75a37.51,37.51,0,0,1,35.41-32.86c16.65-.89,33.32-.22,50-.39A2.26,2.26,0,0,1,297.82,157.49Z"
                transform="translate(-159.8 -63.22)" />
            <path
                d="M372,200.7a3,3,0,0,1-2.61,1c-16.47,0-32.95.18-49.43-.05-11.64-.15-20.2-7.18-22.36-17.66-2.85-13.8,5.94-26.07,20-27.11,14.94-1.11,29.94-.23,44.92-.41a54.71,54.71,0,0,1,9.15.48c-3.7,4.56-6.72,9.21-7.87,14.57-1.87,1.39-3.77.91-5.55.92-11.49,0-23,0-34.45,0a22.67,22.67,0,0,0-4.95.38,6.34,6.34,0,0,0-5.21,6.4,6.5,6.5,0,0,0,5.39,6.29,23.76,23.76,0,0,0,4.47.26c9.49.07,19-.12,28.46.2A21.66,21.66,0,0,1,372,200.7Z"
                transform="translate(-159.8 -63.22)" />
            <path
                d="M271,216.51V202.28c-7.47,0-14.94.3-20.74-5.25a26.87,26.87,0,0,1-6.44-9.4h42.42V217H372c-2.19,9.17-10.77,15.59-21.07,15.89-9.15.26-18.3.15-27.46.17-12.31,0-24.62,0-37.44,0C281.46,228.05,276.77,222.89,271,216.51Z"
                transform="translate(-159.8 -63.22)" />
        </g>
    </g>
</svg>