<svg xmlns="http://www.w3.org/2000/svg" viewBox="0 0 262.95 263.15">
    <title>logo-sw</title>
    <style>
        .logo{
            fill: #fff;
        }
    </style>
    <g id="Capa_1-2" class="logo" data-name="Capa 1">
        <path
            d="M422.72,194.78c-.17,75.15-62.31,132.58-133.27,131.53-72.16-1.06-130.75-61.09-129.67-133.62C160.83,122.61,218.41,62.25,293,63.19,364.87,64.09,422.66,122.76,422.72,194.78ZM291.44,308.16c60.32.5,113.94-49.3,113.22-114.75A113.46,113.46,0,0,0,290.79,81.2c-64,.29-113.29,53.27-113,114.1C178.08,256.93,229.06,308.75,291.44,308.16Z"
            transform="translate(-159.77 -63.18)" />
        <path
            d="M298.52,156.6c-4.12,4.77-7.27,9.19-8.72,14.31-1.9,1.27-3.78.84-5.57.85-11.66,0-23.32,0-35,0-7.38,0-13.81,2.32-18.45,8.28-5.36,6.9-7.36,14.47-3.82,22.9,3.77,8.95,10.5,13.95,20.19,14.78,2.48.21,5,0,7.62,0l15.77,14.36-.49,1c-10.41-.33-20.88.9-31.23-1.22-16.12-3.3-28.39-18.52-29.16-35a38.05,38.05,0,0,1,29.91-39.46,61,61,0,0,1,12.42-1c14.48-.15,29-.08,43.46-.08C296.14,156.29,296.79,156.42,298.52,156.6Z"
            transform="translate(-159.77 -63.18)" />
        <path
            d="M372.7,156.59a33.58,33.58,0,0,0-9,15c-1.82,1.31-3.72.82-5.5.83-11.48,0-23,0-34.46,0a22.74,22.74,0,0,0-4.95.43,6.19,6.19,0,0,0-5.06,6.47,6.29,6.29,0,0,0,5.07,6,24,24,0,0,0,4.95.36c9.49.07,19-.22,28.46.24,8.81.43,15.32,5,19.38,12.91a3.16,3.16,0,0,1,.34.93,4.74,4.74,0,0,1,0,1c-.74,1.27-2,1-3.11,1-16.15,0-32.3.2-48.45,0C304,201.48,293.65,188,297.88,172.6c2.39-8.68,8.57-13.61,17.17-15.57a34.25,34.25,0,0,1,7.44-.7c15.48-.06,31,0,46.45,0C369.75,156.3,370.57,156.42,372.7,156.59Z"
            transform="translate(-159.77 -63.18)" />
        <path
            d="M270.94,216.64V203c-2.74-1.31-5.43-.62-8-.75a20.47,20.47,0,0,1-18.74-14.76h42.08v29.38c6,.17,11.55.06,17.13.08s11.31,0,17,0h51.08c1.05,1.66.3,2.64-.27,3.62-4.54,7.77-11.24,12.2-20.31,12.39-11,.22-22,.14-32.95.16-10.48,0-21,0-32.07,0Z"
            transform="translate(-159.77 -63.18)" />
    </g>
</svg>